<svg id="Capa_1" data-name="Capa 1" xmlns="http://www.w3.org/2000/svg" viewBox="0 0 87.7 87.71"><defs><style>.cls-1{fill:#ceccc0;}.cls-2{fill:#ffce43;}.cls-3{fill:#383838;}</style></defs><title>Mesa de trabajo 1</title><path class="cls-1" d="M77.32,44.31a33.17,33.17,0,0,1-34.24,33.1A33.15,33.15,0,0,1,10.23,42.93,33.23,33.23,0,0,1,44,10.3,33.23,33.23,0,0,1,77.32,44.31Z"/><path class="cls-2" d="M76.31,55.51c-7.35-7.42-7.22-16.19.32-23.81,3.62-3.66,7.28-7.3,10.92-10.94A48.38,48.38,0,0,0,66.77,0Q61.22,5.61,55.64,11.18c-7.51,7.48-16.22,7.54-23.81.07Q26.19,5.7,20.6.08A48.48,48.48,0,0,0-.08,20.89l10.66,10.6c8,8,8.2,16.63.42,24.53Q5.54,61.56,0,67A48.2,48.2,0,0,0,20.8,87.71q6.3-6.3,12.68-12.52C39.38,69.47,48,69.28,53.89,75q6.55,6.27,13,12.65A48.15,48.15,0,0,0,87.62,66.79Q82,61.16,76.31,55.51Z"/><path class="cls-3" d="M57.78,44a14,14,0,1,1-13.92-14.2A13.84,13.84,0,0,1,57.78,44Z"/></svg>